<?xml version="1.0" standalone="no"?>
<!DOCTYPE svg PUBLIC "-//W3C//DTD SVG 20010904//EN"
 "http://www.w3.org/TR/2001/REC-SVG-20010904/DTD/svg10.dtd">
<svg version="1.0" xmlns="http://www.w3.org/2000/svg"
 width="700.000000pt" height="700.000000pt" viewBox="0 0 700.000000 700.000000"
 preserveAspectRatio="xMidYMid meet">
<metadata>
Created by potrace 1.14, written by Peter Selinger 2001-2017
</metadata>
<g transform="translate(0.000000,700.000000) scale(0.100000,-0.100000)"
fill="#000000" stroke="none">
<path d="M2483 6979 c-64 -25 -142 -93 -173 -153 -16 -29 -33 -47 -50 -51 -14
-4 -38 -13 -55 -20 -16 -8 -59 -26 -95 -40 -66 -27 -266 -125 -330 -162 -77
-44 -139 -82 -194 -119 l-59 -39 -611 0 -611 0 -5 -750 -5 -750 -22 -45 c-47
-94 -148 -395 -168 -498 -2 -13 -7 -32 -10 -42 -3 -10 -8 -29 -10 -42 -3 -13
-11 -57 -20 -98 -22 -115 -30 -160 -41 -255 -26 -230 -26 -663 1 -826 2 -13 6
-46 10 -74 12 -98 22 -157 50 -285 21 -96 91 -339 114 -395 5 -11 26 -65 46
-120 44 -115 166 -369 226 -470 83 -138 196 -305 286 -420 146 -186 390 -428
583 -578 8 -7 45 -36 82 -64 37 -29 70 -53 73 -53 4 0 34 -19 68 -43 206 -144
544 -311 810 -401 195 -65 449 -126 636 -152 25 -3 57 -7 70 -10 170 -26 633
-25 849 2 83 10 293 47 347 61 33 8 69 17 79 19 88 17 386 116 482 160 29 13
55 24 59 24 13 0 228 108 335 169 322 182 638 437 880 710 36 41 70 79 76 85
65 68 263 353 352 508 47 80 182 351 182 364 0 3 8 24 19 47 41 91 118 324
152 457 56 222 71 312 93 535 13 126 15 642 4 661 -3 5 -9 45 -13 89 -3 43 -8
82 -10 85 -1 3 -6 28 -9 55 -17 129 -80 386 -137 557 -230 685 -679 1297
-1256 1713 -65 47 -122 89 -128 93 -79 62 -414 240 -590 314 -237 99 -575 195
-785 223 -14 2 -38 6 -55 9 -31 5 -66 9 -190 23 -38 4 -176 7 -305 8 -258 0
-378 -8 -537 -35 -45 -8 -59 -6 -100 13 -41 19 -68 22 -193 24 -124 2 -152 -1
-197 -18z"/>
</g>
</svg>
